<mxfile host="65bd71144e">
    <diagram id="CsGvBWRR7bK1iq2ugs5d" name="ページ1">
        <mxGraphModel dx="990" dy="575" grid="1" gridSize="10" guides="1" tooltips="1" connect="1" arrows="1" fold="1" page="1" pageScale="1" pageWidth="827" pageHeight="1169" background="#F4F1DE" math="0" shadow="0">
            <root>
                <mxCell id="0"/>
                <mxCell id="1" parent="0"/>
                <mxCell id="25" value="AWS Cloud" style="points=[[0,0],[0.25,0],[0.5,0],[0.75,0],[1,0],[1,0.25],[1,0.5],[1,0.75],[1,1],[0.75,1],[0.5,1],[0.25,1],[0,1],[0,0.75],[0,0.5],[0,0.25]];outlineConnect=0;gradientColor=none;html=1;whiteSpace=wrap;fontSize=12;fontStyle=0;shape=mxgraph.aws4.group;grIcon=mxgraph.aws4.group_aws_cloud_alt;strokeColor=#232F3E;fillColor=none;verticalAlign=top;align=left;spacingLeft=30;fontColor=#232F3E;dashed=0;rounded=0;sketch=0;" vertex="1" parent="1">
                    <mxGeometry x="220" y="150" width="480" height="250" as="geometry"/>
                </mxCell>
                <mxCell id="7" value="Cloud Front" style="fillColor=#EFF0F3;strokeColor=none;dashed=0;verticalAlign=top;fontStyle=0;fontColor=#232F3D;rounded=0;sketch=0;" vertex="1" parent="1">
                    <mxGeometry x="300" y="180" width="230" height="170" as="geometry"/>
                </mxCell>
                <mxCell id="2" value="S3&lt;br&gt;" style="points=[[0,0,0],[0.25,0,0],[0.5,0,0],[0.75,0,0],[1,0,0],[0,1,0],[0.25,1,0],[0.5,1,0],[0.75,1,0],[1,1,0],[0,0.25,0],[0,0.5,0],[0,0.75,0],[1,0.25,0],[1,0.5,0],[1,0.75,0]];outlineConnect=0;fontColor=#393C56;gradientDirection=north;fillColor=#F2CC8F;strokeColor=#E07A5F;dashed=0;verticalLabelPosition=bottom;verticalAlign=top;align=center;html=1;fontSize=12;fontStyle=0;aspect=fixed;shape=mxgraph.aws4.resourceIcon;resIcon=mxgraph.aws4.s3;" vertex="1" parent="1">
                    <mxGeometry x="590" y="192" width="78" height="78" as="geometry"/>
                </mxCell>
                <mxCell id="3" value="" style="strokeColor=#dddddd;shadow=1;strokeWidth=1;rounded=1;absoluteArcSize=1;arcSize=2;sketch=0;fontColor=#393C56;fillColor=#F2CC8F;" vertex="1" parent="1">
                    <mxGeometry x="240" y="560" width="110" height="60" as="geometry"/>
                </mxCell>
                <mxCell id="4" value="Cloud&#10;Filestore" style="dashed=0;connectable=0;html=1;fillColor=#5184F3;strokeColor=none;shape=mxgraph.gcp2.hexIcon;prIcon=cloud_filestore;part=1;labelPosition=right;verticalLabelPosition=middle;align=left;verticalAlign=middle;spacingLeft=5;fontColor=#999999;fontSize=12;" vertex="1" parent="3">
                    <mxGeometry y="0.5" width="44" height="39" relative="1" as="geometry">
                        <mxPoint x="5" y="-19.5" as="offset"/>
                    </mxGeometry>
                </mxCell>
                <mxCell id="9" style="edgeStyle=orthogonalEdgeStyle;curved=0;rounded=1;sketch=0;orthogonalLoop=1;jettySize=auto;html=1;exitX=0.5;exitY=1;exitDx=0;exitDy=0;fontColor=#393C56;strokeColor=#E07A5F;fillColor=#F2CC8F;" edge="1" parent="1" source="7" target="7">
                    <mxGeometry relative="1" as="geometry"/>
                </mxCell>
                <mxCell id="17" style="edgeStyle=orthogonalEdgeStyle;curved=0;rounded=1;sketch=0;orthogonalLoop=1;jettySize=auto;html=1;entryX=0;entryY=0.5;entryDx=0;entryDy=0;entryPerimeter=0;fontColor=#393C56;strokeColor=#E07A5F;fillColor=#F2CC8F;" edge="1" parent="1" source="10" target="15">
                    <mxGeometry relative="1" as="geometry"/>
                </mxCell>
                <mxCell id="10" value="ユーザ" style="outlineConnect=0;gradientColor=none;fontColor=#545B64;strokeColor=none;fillColor=#879196;dashed=0;verticalLabelPosition=bottom;verticalAlign=top;align=center;html=1;fontSize=12;fontStyle=0;aspect=fixed;shape=mxgraph.aws4.illustration_users;pointerEvents=1;rounded=0;sketch=0;" vertex="1" parent="1">
                    <mxGeometry x="60" y="210" width="100" height="100" as="geometry"/>
                </mxCell>
                <mxCell id="18" style="edgeStyle=orthogonalEdgeStyle;curved=0;rounded=1;sketch=0;orthogonalLoop=1;jettySize=auto;html=1;fontColor=#393C56;strokeColor=#E07A5F;fillColor=#F2CC8F;" edge="1" parent="1" source="15" target="16">
                    <mxGeometry relative="1" as="geometry"/>
                </mxCell>
                <mxCell id="20" style="edgeStyle=orthogonalEdgeStyle;curved=0;rounded=1;sketch=0;orthogonalLoop=1;jettySize=auto;html=1;fontColor=#393C56;strokeColor=#3700CC;fillColor=#6a00ff;" edge="1" parent="1" source="15" target="3">
                    <mxGeometry relative="1" as="geometry"/>
                </mxCell>
                <mxCell id="15" value="Lambda@Edge" style="points=[[0,0,0],[0.25,0,0],[0.5,0,0],[0.75,0,0],[1,0,0],[0,1,0],[0.25,1,0],[0.5,1,0],[0.75,1,0],[1,1,0],[0,0.25,0],[0,0.5,0],[0,0.75,0],[1,0.25,0],[1,0.5,0],[1,0.75,0]];outlineConnect=0;fontColor=#232F3E;gradientColor=#F78E04;gradientDirection=north;fillColor=#D05C17;strokeColor=#ffffff;dashed=0;verticalLabelPosition=bottom;verticalAlign=top;align=center;html=1;fontSize=12;fontStyle=0;aspect=fixed;shape=mxgraph.aws4.resourceIcon;resIcon=mxgraph.aws4.lambda;rounded=0;sketch=0;" vertex="1" parent="1">
                    <mxGeometry x="260" y="260" width="70" height="70" as="geometry"/>
                </mxCell>
                <mxCell id="19" style="edgeStyle=orthogonalEdgeStyle;curved=0;rounded=1;sketch=0;orthogonalLoop=1;jettySize=auto;html=1;fontColor=#393C56;strokeColor=#E07A5F;fillColor=#F2CC8F;" edge="1" parent="1" source="16" target="2">
                    <mxGeometry relative="1" as="geometry"/>
                </mxCell>
                <mxCell id="16" value="" style="outlineConnect=0;dashed=0;verticalLabelPosition=bottom;verticalAlign=top;align=center;html=1;shape=mxgraph.aws3.cache_node;fillColor=#2E73B8;gradientColor=none;rounded=0;sketch=0;fontColor=#393C56;strokeColor=#E07A5F;" vertex="1" parent="1">
                    <mxGeometry x="400" y="232.5" width="90" height="77.5" as="geometry"/>
                </mxCell>
                <mxCell id="22" style="edgeStyle=orthogonalEdgeStyle;curved=0;rounded=1;sketch=0;orthogonalLoop=1;jettySize=auto;html=1;entryX=0;entryY=0.75;entryDx=0;entryDy=0;entryPerimeter=0;fontColor=#393C56;strokeColor=#3700CC;fillColor=#6a00ff;" edge="1" parent="1" source="21" target="15">
                    <mxGeometry relative="1" as="geometry"/>
                </mxCell>
                <mxCell id="21" value="Twitterbot" style="dashed=0;outlineConnect=0;html=1;align=center;labelPosition=center;verticalLabelPosition=bottom;verticalAlign=top;shape=mxgraph.weblogos.twitter;fillColor=#1DA1F2;strokeColor=none;rounded=0;sketch=0;fontColor=#393C56;" vertex="1" parent="1">
                    <mxGeometry x="40" y="390" width="80" height="70" as="geometry"/>
                </mxCell>
                <mxCell id="26" value="" style="outlineConnect=0;dashed=0;verticalLabelPosition=bottom;verticalAlign=top;align=center;html=1;shape=mxgraph.aws3.cloudfront;fillColor=#F58536;gradientColor=none;rounded=0;sketch=0;fontColor=#393C56;strokeColor=#E07A5F;" vertex="1" parent="1">
                    <mxGeometry x="310" y="180" width="50" height="63" as="geometry"/>
                </mxCell>
            </root>
        </mxGraphModel>
    </diagram>
</mxfile>